<svg xmlns="http://www.w3.org/2000/svg" viewBox="0 0 107.01 62">
          <defs>
            <style>
                .cls-1{fill:#5CB874;}
                .cls-2{fill:#8A8A68;}
                .cls-3{fill:#fff;}
                .cls-4{fill:#81B75C;}
            </style>
          </defs>
          <title>Recurso 5</title>
          <g id="Capa_2" data-name="Capa 2">
            <g id="Capa_1-2" data-name="Capa 1">
              <path class="cls-1"
                d="M1,60.91c0-.86-.16-1.66-.16-2.64-.16-1.25-.16-2.81-.19-4l0-.93H.57c0-1.14-.1-2.32-.1-3.5v-.45a.32.32,0,0,1-.06-.15c-.19-2.81-.34-5.83-.34-8.6v-.42S0,40.11,0,40.08c-.12-.38,2.48-.38,3.23-.38s.75.57,1,1.18a14.81,14.81,0,0,1,.4,2.39l.44,2a8.38,8.38,0,0,1,.25,1c.16.54,1.54,8,1.88,8.18,0-.19-.25-4.78-.34-7.29,0-1.15,0-2.36,0-3.57,0-.7,0-1.37,0-2.07,0-.45.09-1.69.09-1.69L7,39.7s.57,0,.79-.07c.5,0,1.78-.09,1.78.2l.07,20.25c0,1.66-1.63,1.21-2.76,1.47a11.16,11.16,0,0,1-.78-2.74v-.19a9.35,9.35,0,0,0-.63-3v-.07c0-.16-.09-.32-.09-.48l-.6-2.77a13.86,13.86,0,0,0-.75-2.48c-.19-.77-.29-1.53-.5-2.26v-.07c0-.16-.85-4.39-.85-4.3h0a46.28,46.28,0,0,0,.25,5.55c.09,1.49.16,3.09.16,4.58s.28,2.74.28,4.11c0,1.08.19,2.1.19,3.12s-1.16,1-1.88,1c-.22,0-.73,0-.73-.41C.94,61.17.94,61,1,60.91Z" />
              <path class="cls-1"
                d="M12,45.5c.56-2.58,1.35-6,5.26-6,3.17,0,3.7,6,3.92,8.22,0,.25,0,1.59,0,1.91a58.39,58.39,0,0,1-.44,6.65c-.09.45-.59,2.39-.59,2.58-.75,2.17-1.69,3.35-3.64,3.35a2.27,2.27,0,0,1-1.38-.32,7.45,7.45,0,0,1-2.91-4.75l-.63-4.61a7.45,7.45,0,0,1-.06-1.15A36.78,36.78,0,0,1,12,45.5Zm2.51,9.81c.37.35,0,3.53,1.84,3.53a2.4,2.4,0,0,0,1.29-1.11,8.62,8.62,0,0,0,.81-2.87l.47-4.59c0-.09,0-2.74,0-3.21,0-.1,0-.2,0-.29s0-.13,0-.22-.06-.1-.06-.16c-.16-1.37-.54-4.21-1.95-4.21s-2.06,2.2-2.38,3.41c-.06.06-.09.1-.09.16a19.13,19.13,0,0,0-.35,4c.1.06-.18.16.16,1.15,0,.09,0,.57,0,.89,0,1.15.31,2.23.31,3.44Z" />
              <path class="cls-1"
                d="M23.79,59.35l-.12-.41a69.31,69.31,0,0,1-.44-8.51v-.64c0-.41-.16-3.59-.16-4V42.92c0-.2.1-1.79.16-2.27,0,0,0-.38,0-.47s.06-.61.28-.61h.07a10.35,10.35,0,0,0,2.22.13L26,40v.45a3.66,3.66,0,0,1-.13,1.21l-.06,6.62c.12,1,.06,2,.12,3,0,.16.1,1.37.1,1.53v1.43c0,.19.22,2.45.31,3.22,0,.32.1.86.41,1h.22c1.54,0,2.07-1.76,2.22-3,.22-1.46,0-2.93.19-4.39,0-.86.07-5,.07-5.86v0c0-.82-.1-1.59-.13-2.42,0-.16,0-1.27,0-1.4a6.2,6.2,0,0,1-.13-.79v-.67c.19-.29,1.54-.29,2-.29h.38a.58.58,0,0,1,.19.19,4.68,4.68,0,0,1,.12,1.63c0,.06,0,.44,0,.54l.16.54c0,.13,0,1.08,0,1.21s.13.6.13.67v.48C32.23,45,32,45.91,32,46c0,1.53.12,3.09.12,4.61v.1c0,.16-.09,1.4-.12,1.56v0c0,.54.09,1,.09,1.6,0,.09,0,.38,0,.38,0,.16-.13,1.37-.13,1.49V57a10.42,10.42,0,0,1-.28,1.37c-.59,2.39-2,2.74-4,3.22l-.5.13h-.38a3.15,3.15,0,0,1-2.38-1.28C24.23,60.05,24,59.73,23.79,59.35Z" />
              <path class="cls-1"
                d="M41.28,44.76A17.79,17.79,0,0,1,42,42c.72-1.3,3-2.19,4.45-2.19.25,0,1.19.09,1.31.09,1,.13.76,3.31.5,2.93l-.18,0-1.88.1c-2.45.13-2,3-2.1,4.78S44,52.5,44,54.7c.31,1.85-.5,4,2.41,4,.63,0,.53-.64.53-1.3,0-1.47-.06-3-.15-4.46l-.06-.07h-.16c-.38,0-.91,0-.91-.44,0,0,0-1,.06-1.12,0-.41-.09-1-.06-1.34l.06-.09c.41,0,.79-.13,1.19-.13.79,0,2.32.1,2.42.7,0,3,.22,6,.22,9a2.16,2.16,0,0,1-2.35,2.3c-1.48,0-4.33.28-4.93-1.37-.15-.42-.53-1.5-.53-1.53A34.42,34.42,0,0,1,41,51.67V50.4Z" />
              <path class="cls-1"
                d="M52.1,57.31s.09-.35.09-.41L53,52a18.86,18.86,0,0,0,.69-4.45,17,17,0,0,1,.84-4.11c.1-.64.16-3.16.6-3.38,1,0,2.1-.16,2.57-.16.31,0,.5.45.59.67.66,2.71,1,4.36,1.79,6.88a35.06,35.06,0,0,1,1.16,6.21,9.11,9.11,0,0,0,.28,1.59s0,.23,0,.23a20.28,20.28,0,0,1,1.54,5.92c0,.35-.94.38-1.1.38s-.38,0-.44,0-.81.1-.91.13-.15,0-.15-.13a18.7,18.7,0,0,0-.66-3.38c-.47-1.62-1.16-4.07-1.35-4.42a8.9,8.9,0,0,0-1,.09H55.11c-.1.42-.13,1.21-.22,1.21-.28,2.26-.72,4.46-.91,6.72-.13.23-1.44.26-1.69.26-.41,0-.91,0-.91-.54C51.38,60.15,52.1,58.78,52.1,57.31Zm4.14-5.76a6.55,6.55,0,0,0,2-.19A5.44,5.44,0,0,0,57.9,50c-.29-1.12-.5-2.27-.76-3.41a3.54,3.54,0,0,0-.5-1.63l-.4,5.9Z" />
              <path class="cls-1"
                d="M67.3,52.69c0,.32.06.61.06.9s-.06.7-.06,1.08c0,2.51.44,3.85.44,6.4,0,.19,0,.73,0,.73l-.1.13a7.32,7.32,0,0,1-2.75-.06c0-2-.16-2.71-.16-4.72,0-2.39,0-4.78-.09-7.13,0-1.15-.16-2.3-.16-3.44,0-1.56.09-3.16.19-4.75,0-.48,0-1,.09-1.49a.34.34,0,0,0,.1,0,.26.26,0,0,1,.09,0A21.18,21.18,0,0,1,69.24,40a4.87,4.87,0,0,1,5.24,5v2.2A4.83,4.83,0,0,1,74,48.71s0,0,0,.07a4.52,4.52,0,0,1-1.26,1.43c-.21.09-.78.51-.94.57a4.49,4.49,0,0,1-.59.19c-.1,0-.19.07-.19.19a.3.3,0,0,0,.06.2c.54,1.68,1.13,3.37,1.73,5.06l.31.89c0,.1.19.51.22.64.16.44.69,1.11.85,1.59A9,9,0,0,1,75,61.87c0,.19-.41.28-.53.28a6.79,6.79,0,0,1-1.44.07l-.94,0a.19.19,0,0,1-.19-.15c-.63-2.43-1.41-3.28-2-5.67-.06-.16-.34-1.31-.37-1.47s-.44-1.3-.51-1.43c-.06-.29-.34-1.28-.84-1.28S67.3,52.25,67.3,52.69Zm.16-3.47h.06c.06,0,.5-.09.53-.13s.76-.12.85-.12c1.72-.29,3-1,3-3.06,0-1.37-.63-3.38-2.13-3.38h-.07c-.09,0-.75.13-.84.13a6.49,6.49,0,0,0-1.32.06A43.08,43.08,0,0,0,67.33,48v1.05C67.33,49.22,67.4,49.22,67.46,49.22Z" />
              <path class="cls-1"
                d="M77.14,57.79c0-.73,0-4.11,0-4.84,0-1.24.06-2.52.06-3.82,0-3-.28-5.71-.28-8.6,0-.32,1.7-.45,2-.55,2.32,0,3,.1,4.42,1,1.78,1.12,1.72,3.67,2.16,5.42.06.38,0,.79.12,1.21,0,1.08.1,1.43.1,3.92,0,2.67,0,6.52-1.44,8.21l-1.35,1.34a10,10,0,0,1-4.8,1c-.25,0-.5-.06-.56-.35C77.46,60.4,77.24,59.1,77.14,57.79ZM80,59.19l.06.06c2.19.16,2.91-2.48,2.91-4.42V53.59c0-.07,0-.58,0-.77,0-1.21-.13-2.39-.13-3.63v-.38l-.28-3.54c0-.76-.35-2.23-1.35-2.35a18.66,18.66,0,0,0-2,0c0,2.77.34,5.55.34,8.28v.9l.1.06v3.12a6.16,6.16,0,0,1,.18,1.47c0,.09,0,.25,0,.44a1.16,1.16,0,0,0,.06.35A6.85,6.85,0,0,0,80,59.19Z" />
              <path class="cls-1"
                d="M87.89,60.94c-.28-3.95-.31-9.49-.28-10.7,0-.92.22-2.13.19-3.06l-.16-6.72c0-.41.13-.32.32-.51-.47-.16,1.28-.22,2.07-.22.59,0,5.23,0,5.2.54,0,0,0,.35,0,.45,0,.47,0,1.05,0,1.46s-2.32.54-3.39.54h-.15c-.32,0-.63-.06-.94-.06,0,0-.13,0-.13,0l-.13,3.38c.13.64,0,3.66.54,3.66h.62a7.51,7.51,0,0,1,2.64.35c.5.16.28,1,.28,1.44s-.1.92-.5.92H92.25c-.09.09-.44.09-1,.09a3.93,3.93,0,0,1-.69,0l-.1.1a1.61,1.61,0,0,1,.13.63c0,.2,0,.39-.06.71v.41c0,1.5.12,4.94.62,4.94a1.73,1.73,0,0,0,.69-.1H95.2c.22,0,.25.26.22.48v.25c0,.61,0,1.25,0,1.76l0,.09c-.94,0-2,.26-3,.26l-2.94-.16C88.55,61.68,88,61.71,87.89,60.94Z" />
              <path class="cls-1"
                d="M98.36,60.91c0-.86-.15-1.66-.15-2.64-.16-1.25-.16-2.81-.19-4l0-.93h-.07c0-1.14-.09-2.32-.09-3.5v-.45a.32.32,0,0,1-.06-.15c-.19-2.81-.35-5.83-.35-8.6v-.42s-.06-.16-.06-.19c-.13-.38,2.48-.38,3.23-.38s.75.57,1,1.18a13.7,13.7,0,0,1,.41,2.39l.44,2c0-.16.15.64.25,1,.15.54,1.53,8,1.88,8.18,0-.19-.25-4.78-.35-7.29,0-1.15,0-2.36,0-3.57,0-.7,0-1.37,0-2.07,0-.45.1-1.69.1-1.69l.06-.06s.56,0,.78-.07c.51,0,1.79-.09,1.79.2L107,60.08c0,1.66-1.63,1.21-2.75,1.47a11.44,11.44,0,0,1-.79-2.74v-.19a9.08,9.08,0,0,0-.63-3v-.07c0-.16-.09-.32-.09-.48l-.59-2.77a13.33,13.33,0,0,0-.76-2.48c-.18-.77-.28-1.53-.5-2.26v-.07c0-.16-.84-4.39-.84-4.3h0a46.27,46.27,0,0,0,.26,5.55c.09,1.49.15,3.09.15,4.58s.28,2.74.28,4.11c0,1.08.19,2.1.19,3.12s-1.16,1-1.88,1c-.22,0-.72,0-.72-.41C98.3,61.17,98.3,61,98.36,60.91Z" />
              <!-- <path class="cls-2"
                d="M24.23,65.86A2.65,2.65,0,0,1,25,66a1.65,1.65,0,0,1,.59.35,1.5,1.5,0,0,1,.39.54,1.91,1.91,0,0,1,.13.71v4.19a1.61,1.61,0,0,1-.5,1.25,1.93,1.93,0,0,1-1.38.46h-.57V77a.64.64,0,0,1-.14.42.54.54,0,0,1-.43.16h-.55a.17.17,0,0,1-.14-.06.2.2,0,0,1,0-.15V66.06a.16.16,0,0,1,0-.14.17.17,0,0,1,.14-.06ZM23.66,67v5.39h.57a.54.54,0,0,0,.43-.17.69.69,0,0,0,.14-.43V67.57a.67.67,0,0,0-.14-.43.51.51,0,0,0-.43-.17Z" />
              <path class="cls-2"
                d="M31.66,65.86a.17.17,0,0,1,.14.06.26.26,0,0,1,.06.13l1.08,11.3a.27.27,0,0,1-.06.17.22.22,0,0,1-.2.08H32.2a.64.64,0,0,1-.41-.14.62.62,0,0,1-.18-.36l-.09-1.6H30.7l-.1,1.6a.52.52,0,0,1-.18.36.59.59,0,0,1-.4.14h-.48a.21.21,0,0,1-.2-.08.22.22,0,0,1-.06-.17l1.08-11.3a.26.26,0,0,1,.06-.13.17.17,0,0,1,.14-.06Zm-.89,8.53h.68l-.35-5.67Z" />
              <path class="cls-2"
                d="M36.11,66.36a.44.44,0,0,1,.16-.36.55.55,0,0,1,.41-.14h.55a.17.17,0,0,1,.14.06.16.16,0,0,1,.05.14V77.24a.35.35,0,0,1-.1.26.33.33,0,0,1-.25.1h-.61a.33.33,0,0,1-.25-.1.35.35,0,0,1-.1-.26Z" />
              <path class="cls-2"
                d="M43.87,70a.55.55,0,0,1-.43-.17.64.64,0,0,1-.14-.42v-2a.65.65,0,0,0-.14-.43.55.55,0,0,0-.43-.17.54.54,0,0,0-.43.17.65.65,0,0,0-.14.43,7.91,7.91,0,0,0,.11,1.39,5.42,5.42,0,0,0,.27,1,4.59,4.59,0,0,0,.4.8l.45.72c.15.24.3.49.44.76a5.66,5.66,0,0,1,.4.95,7.41,7.41,0,0,1,.28,1.26,12.26,12.26,0,0,1,.1,1.72,1.8,1.8,0,0,1-.13.71,1.6,1.6,0,0,1-.38.54,1.77,1.77,0,0,1-.6.34,2.35,2.35,0,0,1-.77.12,1.92,1.92,0,0,1-1.38-.46,1.61,1.61,0,0,1-.5-1.25V73.6a.25.25,0,0,1,0-.15.18.18,0,0,1,.15-.06h.55a.53.53,0,0,1,.42.17.59.59,0,0,1,.14.42v2.07a.65.65,0,0,0,.14.43.55.55,0,0,0,.43.17.52.52,0,0,0,.43-.17.65.65,0,0,0,.14-.43,12.35,12.35,0,0,0-.1-1.63,7.2,7.2,0,0,0-.28-1.17,4.6,4.6,0,0,0-.4-.86l-.45-.7c-.15-.22-.29-.45-.44-.69a4.69,4.69,0,0,1-.4-.84A6.25,6.25,0,0,1,41,69a10.42,10.42,0,0,1-.1-1.6A1.76,1.76,0,0,1,41,66.7a1.6,1.6,0,0,1,.38-.54,1.77,1.77,0,0,1,.6-.34,2.3,2.3,0,0,1,.77-.12,2,2,0,0,1,1.39.45,1.64,1.64,0,0,1,.49,1.26v2.35a.2.2,0,0,1,0,.15.17.17,0,0,1-.14.06Z" />
              <path class="cls-2"
                d="M50.17,65.86a.16.16,0,0,1,.13.06.26.26,0,0,1,.06.13l1.08,11.3a.19.19,0,0,1-.06.17.21.21,0,0,1-.2.08H50.7a.61.61,0,0,1-.4-.14.52.52,0,0,1-.18-.36L50,75.5h-.81l-.1,1.6a.62.62,0,0,1-.18.36.64.64,0,0,1-.41.14H48a.22.22,0,0,1-.2-.08.27.27,0,0,1-.06-.17l1.08-11.3a.26.26,0,0,1,.06-.13.17.17,0,0,1,.14-.06Zm-.9,8.53H50l-.34-5.67Z" />
              <path class="cls-2"
                d="M58.37,76.05a1.8,1.8,0,0,1-.13.71,1.47,1.47,0,0,1-.38.54,1.77,1.77,0,0,1-.6.34,2.35,2.35,0,0,1-.77.12,1.93,1.93,0,0,1-1.38-.46,1.61,1.61,0,0,1-.5-1.25V72.41a.25.25,0,0,1,0-.15.18.18,0,0,1,.15-.06h.57a.48.48,0,0,1,.41.17.64.64,0,0,1,.13.42v3.26a.61.61,0,0,0,.15.43.51.51,0,0,0,.42.17.52.52,0,0,0,.43-.17.6.6,0,0,0,.14-.43V66.36a.44.44,0,0,1,.16-.36.55.55,0,0,1,.41-.14h.55a.17.17,0,0,1,.14.06.16.16,0,0,1,0,.14Z" />
              <path class="cls-2"
                d="M61.8,66.36A.44.44,0,0,1,62,66a.55.55,0,0,1,.41-.14h.55a.17.17,0,0,1,.14.06.16.16,0,0,1,0,.14V77.24a.35.35,0,0,1-.1.26.33.33,0,0,1-.25.1h-.61a.35.35,0,0,1-.25-.1.4.4,0,0,1-.1-.26Z" />
              <path class="cls-2"
                d="M69.56,70a.55.55,0,0,1-.43-.17.64.64,0,0,1-.14-.42v-2a.65.65,0,0,0-.14-.43.55.55,0,0,0-.43-.17A.54.54,0,0,0,68,67a.65.65,0,0,0-.14.43A7.91,7.91,0,0,0,68,68.8a5.39,5.39,0,0,0,.28,1,4.58,4.58,0,0,0,.39.8l.45.72c.15.24.3.49.45.76a6.66,6.66,0,0,1,.39.95,7.41,7.41,0,0,1,.28,1.26,12.26,12.26,0,0,1,.1,1.72,1.8,1.8,0,0,1-.13.71,1.47,1.47,0,0,1-.38.54,1.77,1.77,0,0,1-.6.34,2.35,2.35,0,0,1-.77.12A1.93,1.93,0,0,1,67,77.3a1.61,1.61,0,0,1-.5-1.25V73.6a.25.25,0,0,1,0-.15.18.18,0,0,1,.15-.06h.55a.51.51,0,0,1,.42.17.59.59,0,0,1,.14.42v2.07a.61.61,0,0,0,.15.43.51.51,0,0,0,.42.17.52.52,0,0,0,.43-.17.6.6,0,0,0,.14-.43,10.84,10.84,0,0,0-.1-1.63,6.29,6.29,0,0,0-.28-1.17,4.6,4.6,0,0,0-.4-.86c-.14-.24-.29-.47-.44-.7L67.32,71a4.69,4.69,0,0,1-.4-.84A6.29,6.29,0,0,1,66.65,69a10.28,10.28,0,0,1-.11-1.6,2,2,0,0,1,.13-.71,1.5,1.5,0,0,1,.39-.54,1.63,1.63,0,0,1,.59-.34,2.35,2.35,0,0,1,.77-.12,2,2,0,0,1,1.39.45,1.64,1.64,0,0,1,.49,1.26v2.35a.24.24,0,0,1,0,.15.2.2,0,0,1-.15.06Z" />
              <path class="cls-2"
                d="M77.12,67.89a7.89,7.89,0,0,1,.17-1.09,2.32,2.32,0,0,1,.21-.62.54.54,0,0,1,.26-.26.66.66,0,0,1,.27-.06h.75a.17.17,0,0,1,.14.06.16.16,0,0,1,0,.14V77.39a.2.2,0,0,1,0,.15.17.17,0,0,1-.14.06h-.55a.53.53,0,0,1-.43-.16.55.55,0,0,1-.14-.42L78,69.45,77,77.1a.5.5,0,0,1-.22.36.82.82,0,0,1-.45.14h0a.77.77,0,0,1-.45-.14.49.49,0,0,1-.23-.36l-.92-7.67L75,77a.51.51,0,0,1-.56.58h-.55a.18.18,0,0,1-.15-.06.25.25,0,0,1,0-.15V66.06a.2.2,0,0,1,0-.14.18.18,0,0,1,.15-.06h.66a.66.66,0,0,1,.28,0,.57.57,0,0,1,.25.26,2.69,2.69,0,0,1,.22.62,8.34,8.34,0,0,1,.16,1.1l.86,6.23Z" /> 
              <path class="cls-2"
                d="M82.41,67.41a1.61,1.61,0,0,1,.5-1.26,2,2,0,0,1,1.38-.45,2.35,2.35,0,0,1,.77.12,1.77,1.77,0,0,1,.6.34,1.6,1.6,0,0,1,.38.54,1.76,1.76,0,0,1,.13.71v8.64a1.61,1.61,0,0,1-.49,1.25,1.94,1.94,0,0,1-1.39.46,2.3,2.3,0,0,1-.77-.12,1.77,1.77,0,0,1-.6-.34,1.6,1.6,0,0,1-.38-.54,1.8,1.8,0,0,1-.13-.71Zm2.45,0a.65.65,0,0,0-.14-.43.52.52,0,0,0-.43-.17.55.55,0,0,0-.43.17.65.65,0,0,0-.14.43v8.64a.65.65,0,0,0,.14.43.54.54,0,0,0,.43.17.55.55,0,0,0,.43-.17.65.65,0,0,0,.14-.43Z" /> -->
              <path class="cls-2"
                d="M51.84,20.87a2.31,2.31,0,0,1,.68-1.21,5.12,5.12,0,0,1,3.54-.1A4.15,4.15,0,0,1,54.82,17,3.43,3.43,0,0,1,56,15.32c-1.52.37-2.78.32-3.23-.05a2.44,2.44,0,0,1-.61-.92,1.44,1.44,0,0,1-.42.5,4.52,4.52,0,0,1-3,.11,4.13,4.13,0,0,1,1,2.65,4.45,4.45,0,0,1-2,2.08c1.77-.29,3.23-.08,3.67.38A2.07,2.07,0,0,1,51.84,20.87ZM53.7,30a10.16,10.16,0,0,1-1.91-4.12,11.7,11.7,0,0,1-2.47,5c-3.29,3.81-9.46,3.36-9.84,3s-1.2-7,2.09-10.82a9.32,9.32,0,0,1,2-1.72,11.06,11.06,0,0,1-4,0c-4.91-.91-7.7-6.51-7.58-7s5-4.43,9.76-3.83C38.73,6.45,40.45.43,40.88.13s7,.25,10,4.32A9.76,9.76,0,0,1,52.19,7a10.86,10.86,0,0,1,1.31-2.7c2.81-4.2,9-4.51,9.4-4.19s2,6.81-.77,11a9.19,9.19,0,0,1-1.39,1.63,10.83,10.83,0,0,1,3.92-.37c5,.46,8.23,5.8,8.16,6.33S68,23.79,63,23.33c-.22,0-.45,0-.66-.09.11.12.21.25.32.39,3.12,3.95,1.61,10,1.18,10.36S56.82,34,53.7,30Z" />
              <path class="cls-1"
                d="M79.7,17.9a15.3,15.3,0,0,1,3.5-5.55,23.48,23.48,0,0,1,5.65-4.14A11.3,11.3,0,0,0,87.09,15a12.07,12.07,0,0,1,2.65-5.22c3.39-3.8,9.62-3.23,10-2.84s1.1,7.11-2.3,10.9a9.83,9.83,0,0,1-3,2.28A12.62,12.62,0,0,0,100.59,17,31.93,31.93,0,0,1,96,23.23a15.27,15.27,0,0,1-7.8,4.49,17.06,17.06,0,0,0,8.14-1.07c-.7.91-1.41,1.75-2.11,2.51-5.62,6.13-14.18,8.64-19.12,4s-3.25-12.68,2.37-18.81a28.39,28.39,0,0,1,4.87-4.09A15.28,15.28,0,0,0,79.7,17.9Z" />
              <path class="cls-1"
                d="M27.18,17.92a15.44,15.44,0,0,0-3.5-5.55A23.7,23.7,0,0,0,18,8.22,11.23,11.23,0,0,1,19.78,15a11.85,11.85,0,0,0-2.64-5.21c-3.4-3.8-9.62-3.23-10-2.85S6,14,9.44,17.83a9.84,9.84,0,0,0,3,2.27A12.41,12.41,0,0,1,6.29,17a31.61,31.61,0,0,0,4.58,6.22,15.25,15.25,0,0,0,7.8,4.48,16.91,16.91,0,0,1-8.14-1.07c.7.91,1.41,1.76,2.11,2.52,5.62,6.12,14.18,8.64,19.12,4S35,20.46,29.39,14.33a27.51,27.51,0,0,0-4.87-4.09A15.47,15.47,0,0,1,27.18,17.92Z" />
              <path class="cls-2"
                d="M94.66,21.27l.12,1-8.29.3v-.07l-6.06,6.84L89.85,29l0,1-10.37.37-4.6,5.19-.77-.62,3.24-3.65-.73-10.6,1-.07.67,9.65,5.26-5.94.15-7.12,1,0-.12,6,7.35-8.29.72.66-5.31,6Z" />
              <path class="cls-3"
                d="M57,17c1.47.79,2.92.82,2.78,1a5.55,5.55,0,0,1-2.71.3c1.13,1.05,2.14,1.59,2,1.72a5.51,5.51,0,0,1-2.73-.16A4.44,4.44,0,0,1,54.83,17a5.07,5.07,0,0,1,2.29-2.6c2.05.4,3.79-.32,3.73-.1a5.81,5.81,0,0,1-2.63,1.42c.69.15,1.12.22,1.07.33A5.49,5.49,0,0,1,57,17Zm-3.23-3.59c1.39-.92,2.12-2.2,2.19-2a5.73,5.73,0,0,1-1.06,2.56c1.46-.5,2.41-1.13,2.44-.93a5.71,5.71,0,0,1-1.45,2.35,4.38,4.38,0,0,1-3.12-.07,2.58,2.58,0,0,1-.61-.93,1.36,1.36,0,0,1-.42.5,4.48,4.48,0,0,1-3,.12,4.07,4.07,0,0,1,1,2.65A5.08,5.08,0,0,1,47.21,20c-2-.58-3.81,0-3.73-.23a5.83,5.83,0,0,1,2.75-1.18c-.69-.21-1.11-.32-1-.43a5.36,5.36,0,0,1,2.4-.69c-1.39-.92-2.84-1.08-2.68-1.23a5.6,5.6,0,0,1,2.73,0c-1-1.15-2-1.78-1.83-1.89a5,5,0,0,1,2.24.24c-1.08-1.6-2.56-2.34-2.37-2.44a5.85,5.85,0,0,1,2.8,1c-.36-.63-.59-1-.47-1a5.35,5.35,0,0,1,2.22,1.16c-.4-1.64-1.35-2.76-1.14-2.76a5.63,5.63,0,0,1,2,1.86c0-1.57-.26-2.69-.06-2.66A4.36,4.36,0,0,1,52.26,11c.76-1.32.93-2.53,1.06-2.39a5.82,5.82,0,0,1-.06,3c.47-.55.74-.89.81-.79A5.79,5.79,0,0,1,53.72,13.36ZM54,21.19c.46,1.62,1.44,2.71,1.23,2.71a5.63,5.63,0,0,1-2.09-1.78c0,1.57.36,2.67.15,2.65a4.59,4.59,0,0,1-1.24-1.24C50.59,25,50.15,26.79,50,26.61a6,6,0,0,1,.42-3c-.53.48-.84.79-.9.68a5.78,5.78,0,0,1,.66-2.45c-1.49.74-2.38,1.91-2.42,1.71a5.78,5.78,0,0,1,1.36-2.41c-1.51.31-2.53.82-2.54.61a5.81,5.81,0,0,1,1.73-2.14c1.5-.17,2.69,0,3.08.45a2.17,2.17,0,0,1,.44.82,2.35,2.35,0,0,1,.68-1.23A5,5,0,0,1,56,19.53c1.14,1.78,2.86,2.55,2.65,2.66a5.71,5.71,0,0,1-2.82-.94c.37.62.62,1,.5,1A5.48,5.48,0,0,1,54,21.19Z" />
              <ellipse class="cls-4" cx="51.86" cy="17.55" rx="4.55" ry="4.62"
                transform="translate(-0.03 0.09) rotate(-0.1)" />
              <path class="cls-2"
                d="M12.21,21.29l7.35.26-5.31-6,.72-.66,7.35,8.3-.12-6h1l.14,7.11,5.27,5.94.66-9.65,1,.07-.73,10.61,3.23,3.65-.76.62-4.6-5.2L17,30l0-1,9.43.33-6.06-6.84v.07l-8.29-.29Z" />
            </g>
          </g>
        </svg>